<svg width="800" height="400" viewBox="0 0 800 400" xmlns="http://www.w3.org/2000/svg">
  <defs>
    <linearGradient id="skyGradient" x1="0%" y1="0%" x2="0%" y2="100%">
      <stop offset="0%" style="stop-color:#87CEEB;stop-opacity:1" />
      <stop offset="100%" style="stop-color:#E0F6FF;stop-opacity:1" />
    </linearGradient>
  </defs>
  
  <!-- Sky background -->
  <rect width="800" height="300" fill="url(#skyGradient)"/>
  
  <!-- Road -->
  <rect x="0" y="300" width="800" height="100" fill="#2C3E50"/>
  <rect x="0" y="340" width="800" height="20" fill="#F39C12"/>
  
  <!-- Buildings -->
  <rect x="50" y="150" width="80" height="150" fill="#34495E"/>
  <rect x="150" y="100" width="70" height="200" fill="#2C3E50"/>
  <rect x="240" y="120" width="90" height="180" fill="#34495E"/>
  <rect x="350" y="80" width="75" height="220" fill="#2C3E50"/>
  <rect x="450" y="140" width="85" height="160" fill="#34495E"/>
  <rect x="560" y="110" width="80" height="190" fill="#2C3E50"/>
  <rect x="660" y="130" width="70" height="170" fill="#34495E"/>
  
  <!-- Windows -->
  <rect x="60" y="170" width="15" height="15" fill="#F39C12"/>
  <rect x="80" y="170" width="15" height="15" fill="#F39C12"/>
  <rect x="60" y="200" width="15" height="15" fill="#F39C12"/>
  <rect x="80" y="200" width="15" height="15" fill="#F39C12"/>
  
  <!-- Yellow Taxi 1 -->
  <g transform="translate(200, 320)">
    <rect x="0" y="0" width="60" height="25" fill="#F1C40F" stroke="#E67E22" stroke-width="1"/>
    <rect x="5" y="5" width="50" height="15" fill="#F39C12"/>
    <circle cx="10" cy="30" r="5" fill="#2C3E50"/>
    <circle cx="50" cy="30" r="5" fill="#2C3E50"/>
    <rect x="15" y="-5" width="30" height="8" fill="#F1C40F"/>
    <text x="30" y="13" text-anchor="middle" fill="#2C3E50" font-family="Arial" font-size="8" font-weight="bold">TAXI</text>
  </g>
  
  <!-- Yellow Taxi 2 -->
  <g transform="translate(400, 320)">
    <rect x="0" y="0" width="60" height="25" fill="#F1C40F" stroke="#E67E22" stroke-width="1"/>
    <rect x="5" y="5" width="50" height="15" fill="#F39C12"/>
    <circle cx="10" cy="30" r="5" fill="#2C3E50"/>
    <circle cx="50" cy="30" r="5" fill="#2C3E50"/>
    <rect x="15" y="-5" width="30" height="8" fill="#F1C40F"/>
    <text x="30" y="13" text-anchor="middle" fill="#2C3E50" font-family="Arial" font-size="8" font-weight="bold">TAXI</text>
  </g>
  
  <!-- Black Taxi -->
  <g transform="translate(300, 320)">
    <rect x="0" y="0" width="60" height="25" fill="#2C3E50" stroke="#34495E" stroke-width="1"/>
    <rect x="5" y="5" width="50" height="15" fill="#34495E"/>
    <circle cx="10" cy="30" r="5" fill="#2C3E50"/>
    <circle cx="50" cy="30" r="5" fill="#2C3E50"/>
    <rect x="15" y="-5" width="30" height="8" fill="#2C3E50"/>
    <text x="30" y="13" text-anchor="middle" fill="#F1C40F" font-family="Arial" font-size="8" font-weight="bold">TAXI</text>
  </g>
  
  <!-- Regular car -->
  <g transform="translate(500, 320)">
    <rect x="0" y="0" width="60" height="25" fill="#E74C3C" stroke="#C0392B" stroke-width="1"/>
    <rect x="5" y="5" width="50" height="15" fill="#C0392B"/>
    <circle cx="10" cy="30" r="5" fill="#2C3E50"/>
    <circle cx="50" cy="30" r="5" fill="#2C3E50"/>
  </g>
  
  <!-- Road markings -->
  <rect x="0" y="349" width="30" height="2" fill="white"/>
  <rect x="50" y="349" width="30" height="2" fill="white"/>
  <rect x="100" y="349" width="30" height="2" fill="white"/>
  <rect x="150" y="349" width="30" height="2" fill="white"/>
  <rect x="200" y="349" width="30" height="2" fill="white"/>
  <rect x="250" y="349" width="30" height="2" fill="white"/>
  <rect x="300" y="349" width="30" height="2" fill="white"/>
  <rect x="350" y="349" width="30" height="2" fill="white"/>
  <rect x="400" y="349" width="30" height="2" fill="white"/>
  <rect x="450" y="349" width="30" height="2" fill="white"/>
  <rect x="500" y="349" width="30" height="2" fill="white"/>
  <rect x="550" y="349" width="30" height="2" fill="white"/>
  <rect x="600" y="349" width="30" height="2" fill="white"/>
  <rect x="650" y="349" width="30" height="2" fill="white"/>
  <rect x="700" y="349" width="30" height="2" fill="white"/>
  <rect x="750" y="349" width="30" height="2" fill="white"/>
  
  <!-- Title -->
  <text x="400" y="30" text-anchor="middle" fill="#2C3E50" font-family="Arial" font-size="24" font-weight="bold">Professional Taxi Fleet</text>
  <text x="400" y="55" text-anchor="middle" fill="#34495E" font-family="Arial" font-size="16">Urban Transportation Services</text>
</svg>